<svg width="22" height="22" viewBox="0 0 22 22" fill="none" xmlns="http://www.w3.org/2000/svg">
<path d="M2.75 5.15625C2.75 4.88275 2.85865 4.62044 3.05205 4.42705C3.24544 4.23365 3.50775 4.125 3.78125 4.125H14.0938C14.3673 4.125 14.6296 4.23365 14.823 4.42705C15.0163 4.62044 15.125 4.88275 15.125 5.15625C15.125 5.42975 15.0163 5.69206 14.823 5.88545C14.6296 6.07885 14.3673 6.1875 14.0938 6.1875H3.78125C3.50775 6.1875 3.24544 6.07885 3.05205 5.88545C2.85865 5.69206 2.75 5.42975 2.75 5.15625ZM2.75 16.1562C2.75 15.8827 2.85865 15.6204 3.05205 15.427C3.24544 15.2337 3.50775 15.125 3.78125 15.125H12.7188C12.9923 15.125 13.2546 15.2337 13.448 15.427C13.6413 15.6204 13.75 15.8827 13.75 16.1562C13.75 16.4298 13.6413 16.6921 13.448 16.8855C13.2546 17.0788 12.9923 17.1875 12.7188 17.1875H3.78125C3.50775 17.1875 3.24544 17.0788 3.05205 16.8855C2.85865 16.6921 2.75 16.4298 2.75 16.1562ZM3.78125 9.625C3.50775 9.625 3.24544 9.73365 3.05205 9.92705C2.85865 10.1204 2.75 10.3827 2.75 10.6562C2.75 10.9298 2.85865 11.1921 3.05205 11.3855C3.24544 11.5789 3.50775 11.6875 3.78125 11.6875H18.2188C18.4923 11.6875 18.7546 11.5789 18.948 11.3855C19.1413 11.1921 19.25 10.9298 19.25 10.6562C19.25 10.3827 19.1413 10.1204 18.948 9.92705C18.7546 9.73365 18.4923 9.625 18.2188 9.625H3.78125Z" fill="#4D4D4D"/>
</svg>
