<svg width="16" height="16" viewBox="0 0 16 16" fill="none" xmlns="http://www.w3.org/2000/svg">
<path d="M8.00001 7.66668C7.55798 7.66668 7.13406 7.49108 6.8215 7.17852C6.50894 6.86596 6.33334 6.44204 6.33334 6.00001C6.33334 5.55798 6.50894 5.13406 6.8215 4.8215C7.13406 4.50894 7.55798 4.33334 8.00001 4.33334C8.44204 4.33334 8.86596 4.50894 9.17852 4.8215C9.49108 5.13406 9.66668 5.55798 9.66668 6.00001C9.66668 6.21888 9.62357 6.43561 9.53981 6.63782C9.45605 6.84002 9.33329 7.02376 9.17852 7.17852C9.02376 7.33329 8.84003 7.45605 8.63782 7.53981C8.43561 7.62357 8.21888 7.66668 8.00001 7.66668ZM8.00001 1.33334C6.76233 1.33334 5.57535 1.82501 4.70018 2.70018C3.82501 3.57535 3.33334 4.76233 3.33334 6.00001C3.33334 9.50001 8.00001 14.6667 8.00001 14.6667C8.00001 14.6667 12.6667 9.50001 12.6667 6.00001C12.6667 4.76233 12.175 3.57535 11.2998 2.70018C10.4247 1.82501 9.23769 1.33334 8.00001 1.33334Z" fill="white"/>
</svg>
