<svg width="16" height="16" viewBox="0 0 16 16" fill="none" xmlns="http://www.w3.org/2000/svg">
<path d="M7.99998 7.66665C7.55795 7.66665 7.13403 7.49105 6.82147 7.17849C6.50891 6.86593 6.33331 6.44201 6.33331 5.99998C6.33331 5.55795 6.50891 5.13403 6.82147 4.82147C7.13403 4.50891 7.55795 4.33331 7.99998 4.33331C8.44201 4.33331 8.86593 4.50891 9.17849 4.82147C9.49105 5.13403 9.66665 5.55795 9.66665 5.99998C9.66665 6.21885 9.62354 6.43558 9.53978 6.63779C9.45602 6.83999 9.33326 7.02373 9.17849 7.17849C9.02373 7.33325 8.83999 7.45602 8.63779 7.53978C8.43558 7.62354 8.21885 7.66665 7.99998 7.66665ZM7.99998 1.33331C6.7623 1.33331 5.57532 1.82498 4.70015 2.70015C3.82498 3.57532 3.33331 4.7623 3.33331 5.99998C3.33331 9.49998 7.99998 14.6666 7.99998 14.6666C7.99998 14.6666 12.6666 9.49998 12.6666 5.99998C12.6666 4.7623 12.175 3.57532 11.2998 2.70015C10.4246 1.82498 9.23766 1.33331 7.99998 1.33331Z" fill="white"/>
</svg>
