<svg width="16" height="16" viewBox="0 0 16 16" fill="none" xmlns="http://www.w3.org/2000/svg">
<path d="M7.99998 7.66668C7.55795 7.66668 7.13403 7.49108 6.82147 7.17852C6.50891 6.86596 6.33331 6.44204 6.33331 6.00001C6.33331 5.55798 6.50891 5.13406 6.82147 4.8215C7.13403 4.50894 7.55795 4.33334 7.99998 4.33334C8.44201 4.33334 8.86593 4.50894 9.17849 4.8215C9.49105 5.13406 9.66665 5.55798 9.66665 6.00001C9.66665 6.21888 9.62354 6.43561 9.53978 6.63782C9.45602 6.84002 9.33326 7.02376 9.17849 7.17852C9.02373 7.33329 8.83999 7.45605 8.63779 7.53981C8.43558 7.62357 8.21885 7.66668 7.99998 7.66668ZM7.99998 1.33334C6.7623 1.33334 5.57532 1.82501 4.70015 2.70018C3.82498 3.57535 3.33331 4.76233 3.33331 6.00001C3.33331 9.50001 7.99998 14.6667 7.99998 14.6667C7.99998 14.6667 12.6666 9.50001 12.6666 6.00001C12.6666 4.76233 12.175 3.57535 11.2998 2.70018C10.4246 1.82501 9.23766 1.33334 7.99998 1.33334Z" fill="white"/>
</svg>
